<svg width="129" height="368" xmlns="http://www.w3.org/2000/svg">
 <!-- Generator: Sketch 46.1 (44463) - http://www.bohemiancoding.com/sketch -->
 <title>moutain/element/wave/wave-left</title>
 <desc>Created with Sketch.</desc>
 <defs>
  <linearGradient id="linearGradient-1" y2="100%" x2="50%" y1="0%" x1="50%">
   <stop offset="0%" stop-color="#0D66F3"/>
   <stop offset="100%" stop-color="#4356BF"/>
  </linearGradient>
 </defs>
 <g>
  <title>background</title>
  <rect fill="none" id="canvas_background" height="402" width="582" y="-1" x="-1"/>
 </g>
 <g>
  <title>Layer 1</title>
  <g fill-rule="evenodd" fill="none" id="Ressources">
   <g fill="url(#linearGradient-1)" id="moutain/element/wave/wave-left">
    <g transform="translate(15,192.5) scale(-1,1) translate(-15,-192.5) translate(-117,1) " id="Wave">
     <path fill="#0c7489" transform="translate(132.127197265625,218.93569946289062) scale(-1,1) rotate(23 132.50448608398435,138.382568359375) translate(-132.127197265625,-218.93569946289062) " id="wave" d="m50.08536,76.59838c57.47653,8.16647 108.91179,18.46595 131.22773,30.83336c44.66539,24.75341 45.93715,93.4631 -9.46385,253.84129c-47.95675,-112.15622 -83.8345,-197.95854 -121.76388,-284.67465z"/>
     <path fill="#0c7489" transform="rotate(23 148.93524169921875,74.28372955322261) " opacity="0.228034" id="wave" d="m163.388106,71.193931c-12.71521,3.59916 -23.12422,7.42165 -30.42045,11.46519c-29.87075,16.55427 -40.33372,52.76796 -27.41704,122.91207c18.38618,-40.93842 37.78369,-89.1954 57.83749,-134.37726z"/>
    </g>
   </g>
  </g>
 </g>
</svg>