<svg width="1300" height="499" xmlns="http://www.w3.org/2000/svg">
 <!-- Generator: Sketch 46.1 (44463) - http://www.bohemiancoding.com/sketch -->
 <title>wave_background</title>
 <desc>Created with Sketch.</desc>

 <g>
  <title>background</title>
  <rect fill="none" id="canvas_background" height="402" width="582" y="-1" x="-1"/>
 </g>
 <g>
  <title>Layer 1</title>
  <g fill-rule="evenodd" fill="none" id="Ressource">
   <g id="wave_background">
    <g id="Group-4">
     <path opacity="0.15" fill="#C4C4C4" id="Wave" d="m0,0l1300,0c-0.15631,99.06585 -0.15631,259.04573 0,479.93966c-360.62063,42.34903 -321.10649,-40.24482 -650,-28.98765c-328.89351,11.25717 -343.41044,60.24847 -650,0c1,-123.44367 1,-273.76101 0,-450.95201z"/>
     <path fill="#0c7489" id="Wave" d="m1303.999962,-1l-924.70048,0l-376.29875,0c0,223.96094 0,366.84989 0,428.66685c80.3948,-11.92201 154.18632,-29.33211 343.71823,-11.92201c189.53191,17.4101 256.45746,87.04467 531.95978,21.02991c183.66821,-44.00984 325.44195,-40.77148 425.32122,9.7151l0,-447.48985z"/>
    </g>
   </g>
  </g>
 </g>
</svg>